<svg xmlns:xlink="http://www.w3.org/1999/xlink" version="1.1" class="highcharts-root" style="font-family:&quot;lucida grande&quot;, &quot;lucida sans unicode&quot;, arial, helvetica, sans-serif;font-size:12px;" xmlns="http://www.w3.org/2000/svg" width="600" height="400"><desc>Created with Highcharts 5.0.6</desc><defs><clipPath id="highcharts-ab8a1d6-69"><rect x="0" y="0" width="527" height="298" fill="none"></rect></clipPath></defs><rect fill="#ffffff" class="highcharts-background" x="0" y="0" width="600" height="400" rx="0" ry="0"></rect><rect fill="none" class="highcharts-plot-background" x="63" y="47" width="527" height="298"></rect><g class="highcharts-plot-bands-0"><path fill="#c3e6c3" class="highcharts-plot-band " d="M 63 178.5 L 590 178.5 590 47.5 63 47.5 z"></path><path fill="#e6dcc3" class="highcharts-plot-band " d="M 63 226.5 L 590 226.5 590 178.5 63 178.5 z"></path><path fill="#e6c3c3" class="highcharts-plot-band " d="M 63 345.5 L 590 345.5 590 226.5 63 226.5 z"></path></g><g class="highcharts-grid highcharts-xaxis-grid "><path fill="none" class="highcharts-grid-line" d="M 188.5 47 L 188.5 345" opacity="1"></path><path fill="none" class="highcharts-grid-line" d="M 316.5 47 L 316.5 345" opacity="1"></path><path fill="none" class="highcharts-grid-line" d="M 444.5 47 L 444.5 345" opacity="1"></path><path fill="none" class="highcharts-grid-line" d="M 571.5 47 L 571.5 345" opacity="1"></path></g><g class="highcharts-grid highcharts-yaxis-grid "><path fill="none" stroke="#e6e6e6" stroke-width="1" class="highcharts-grid-line" d="M 63 345.5 L 590 345.5" opacity="1"></path><path fill="none" stroke="#e6e6e6" stroke-width="1" class="highcharts-grid-line" d="M 63 285.5 L 590 285.5" opacity="1"></path><path fill="none" stroke="#e6e6e6" stroke-width="1" class="highcharts-grid-line" d="M 63 226.5 L 590 226.5" opacity="1"></path><path fill="none" stroke="#e6e6e6" stroke-width="1" class="highcharts-grid-line" d="M 63 166.5 L 590 166.5" opacity="1"></path><path fill="none" stroke="#e6e6e6" stroke-width="1" class="highcharts-grid-line" d="M 63 107.5 L 590 107.5" opacity="1"></path><path fill="none" stroke="#e6e6e6" stroke-width="1" class="highcharts-grid-line" d="M 63 46.5 L 590 46.5" opacity="1"></path></g><rect fill="none" class="highcharts-plot-border" x="63" y="47" width="527" height="298"></rect><g class="highcharts-axis highcharts-xaxis "><path fill="none" class="highcharts-tick" stroke="#ccd6eb" stroke-width="1" d="M 188.5 345 L 188.5 355" opacity="1"></path><path fill="none" class="highcharts-tick" stroke="#ccd6eb" stroke-width="1" d="M 316.5 345 L 316.5 355" opacity="1"></path><path fill="none" class="highcharts-tick" stroke="#ccd6eb" stroke-width="1" d="M 444.5 345 L 444.5 355" opacity="1"></path><path fill="none" class="highcharts-tick" stroke="#ccd6eb" stroke-width="1" d="M 571.5 345 L 571.5 355" opacity="1"></path><text x="326.5" text-anchor="middle" transform="translate(0,0)" class="highcharts-axis-title" style="color:#666666;fill:#666666;" y="383"><tspan>Position (bp)</tspan></text><path fill="none" class="highcharts-axis-line" stroke="#ccd6eb" stroke-width="1" d="M 63 345.5 L 590 345.5"></path></g><g class="highcharts-axis highcharts-yaxis "><text x="24.0859375" text-anchor="middle" transform="translate(0,0) rotate(270 24.0859375 196)" class="highcharts-axis-title" style="color:#666666;fill:#666666;" y="196"><tspan>Phred Score</tspan></text><path fill="none" class="highcharts-axis-line" d="M 63 47 L 63 345"></path></g><g class="highcharts-series-group"><g class="highcharts-series highcharts-series-0 highcharts-line-series highcharts-color-undefined " transform="translate(63,47) scale(1 1)" width="298" height="527" clip-path="url(#highcharts-ab8a1d6-69)"><path fill="none" d="M 5.1666666666667 81.83348536773369 L 11.545267489712 72.19543183882243 L 17.923868312757 72.84896172385328 L 24.302469135802 72.65479044684744 L 30.681069958848 73.1990914103456 L 37.059670781893 73.65808419128214 L 43.438271604938 65.30080373526587 L 49.816872427984 66.09858245393906 L 56.195473251029 66.28291681671243 L 62.574074074074 66.51497814214966 L 75.331275720165 67.31265478159278 L 88.088477366255 68.7015598129237 L 100.84567901235 68.11796197302635 L 113.60288065844 68.18563273003778 L 126.36008230453 69.12413777166256 L 139.11728395062 70.40442687500988 L 151.87448559671 70.82653900010487 L 164.6316872428 70.66068719599974 L 177.38888888889 72.00059108788119 L 190.14609053498 73.0113117440149 L 202.90329218107 74.00459602404649 L 215.66049382716 75.23475282571468 L 228.41769547325 76.60473433683018 L 241.17489711934 77.96237047913039 L 253.93209876543 79.53949872918261 L 266.68930041152 80.94873048151612 L 279.44650205761 86.51512385187817 L 292.2037037037 83.1945890948445 L 304.96090534979 84.08373027894342 L 317.71810699588 86.61972449075586 L 330.47530864198 89.62447999947139 L 343.23251028807 93.43209590711075 L 355.98971193416 96.16163648450024 L 368.74691358025 98.11354733236155 L 381.50411522634 101.70625018887947 L 394.26131687243 105.25513100191043 L 407.01851851852 108.74266945202618 L 419.77572016461 112.18701336092727 L 432.5329218107 116.23619277126869 L 445.29012345679 120.63348101024809 L 458.04732510288 125.74434659364081 L 470.80452674897 131.14449279719452 L 483.56172839506 136.14338782856547 L 496.31893004115 143.10668157300015 L 509.07613168724 149.4462919484064 L 521.83333333333 156.21119185925704" class="highcharts-graph" stroke="#d9534f" stroke-width="2" stroke-linejoin="round" stroke-linecap="round"></path></g><g class="highcharts-markers highcharts-series-0 highcharts-line-series highcharts-color-undefined " transform="translate(63,47) scale(1 1)" width="298" height="527" clip-path="none"></g></g><text x="330" text-anchor="middle" class="highcharts-title" style="color:#333333;font-size:18px;fill:#333333;width:536px;" y="24"><tspan>FastQC: Mean Quality Scores</tspan></text><g class="highcharts-axis-labels highcharts-xaxis-labels "><text x="189.3600823045267" style="color:#666666;cursor:default;font-size:11px;fill:#666666;width:166px;text-overflow:clip;" text-anchor="middle" transform="translate(0,0)" y="364" opacity="1"><tspan>20</tspan></text><text x="316.9320987654321" style="color:#666666;cursor:default;font-size:11px;fill:#666666;width:166px;text-overflow:clip;" text-anchor="middle" transform="translate(0,0)" y="364" opacity="1"><tspan>40</tspan></text><text x="444.50411522633743" style="color:#666666;cursor:default;font-size:11px;fill:#666666;width:166px;text-overflow:clip;" text-anchor="middle" transform="translate(0,0)" y="364" opacity="1"><tspan>60</tspan></text><text x="572.0761316872428" style="color:#666666;cursor:default;font-size:11px;fill:#666666;width:166px;text-overflow:clip;" text-anchor="middle" transform="translate(0,0)" y="364" opacity="1"><tspan>80</tspan></text></g><g class="highcharts-axis-labels highcharts-yaxis-labels "><text x="48" style="color:#666666;cursor:default;font-size:11px;fill:#666666;width:188px;text-overflow:clip;" text-anchor="end" transform="translate(0,0)" y="350" opacity="1"><tspan>0</tspan></text><text x="48" style="color:#666666;cursor:default;font-size:11px;fill:#666666;width:188px;text-overflow:clip;" text-anchor="end" transform="translate(0,0)" y="290" opacity="1"><tspan>10</tspan></text><text x="48" style="color:#666666;cursor:default;font-size:11px;fill:#666666;width:188px;text-overflow:clip;" text-anchor="end" transform="translate(0,0)" y="230" opacity="1"><tspan>20</tspan></text><text x="48" style="color:#666666;cursor:default;font-size:11px;fill:#666666;width:188px;text-overflow:clip;" text-anchor="end" transform="translate(0,0)" y="171" opacity="1"><tspan>30</tspan></text><text x="48" style="color:#666666;cursor:default;font-size:11px;fill:#666666;width:188px;text-overflow:clip;" text-anchor="end" transform="translate(0,0)" y="111" opacity="1"><tspan>40</tspan></text><text x="48" style="color:#666666;cursor:default;font-size:11px;fill:#666666;width:188px;text-overflow:clip;" text-anchor="end" transform="translate(0,0)" y="52" opacity="1"><tspan>50</tspan></text></g><text x="590" class="highcharts-credits" text-anchor="end" style="cursor:pointer;color:#999999;font-size:9px;fill:#999999;" y="395"><tspan>Created with MultiQC</tspan></text></svg>