<svg xmlns:xlink="http://www.w3.org/1999/xlink" version="1.1" class="highcharts-root" style="font-family:&quot;lucida grande&quot;, &quot;lucida sans unicode&quot;, arial, helvetica, sans-serif;font-size:12px;" xmlns="http://www.w3.org/2000/svg" width="600" height="400"><desc>Created with Highcharts 5.0.6</desc><defs><clipPath id="highcharts-ab8a1d6-133"><rect x="0" y="0" width="527" height="298" fill="none"></rect></clipPath></defs><rect fill="#ffffff" class="highcharts-background" x="0" y="0" width="600" height="400" rx="0" ry="0"></rect><rect fill="none" class="highcharts-plot-background" x="63" y="47" width="527" height="298"></rect><g class="highcharts-plot-bands-0"><path fill="#c3e6c3" class="highcharts-plot-band " d="M 63 178.5 L 590 178.5 590 47.5 63 47.5 z"></path><path fill="#e6dcc3" class="highcharts-plot-band " d="M 63 226.5 L 590 226.5 590 178.5 63 178.5 z"></path><path fill="#e6c3c3" class="highcharts-plot-band " d="M 63 345.5 L 590 345.5 590 226.5 63 226.5 z"></path></g><g class="highcharts-grid highcharts-xaxis-grid "><path fill="none" class="highcharts-grid-line" d="M 188.5 47 L 188.5 345" opacity="1"></path><path fill="none" class="highcharts-grid-line" d="M 316.5 47 L 316.5 345" opacity="1"></path><path fill="none" class="highcharts-grid-line" d="M 444.5 47 L 444.5 345" opacity="1"></path><path fill="none" class="highcharts-grid-line" d="M 571.5 47 L 571.5 345" opacity="1"></path></g><g class="highcharts-grid highcharts-yaxis-grid "><path fill="none" stroke="#e6e6e6" stroke-width="1" class="highcharts-grid-line" d="M 63 345.5 L 590 345.5" opacity="1"></path><path fill="none" stroke="#e6e6e6" stroke-width="1" class="highcharts-grid-line" d="M 63 285.5 L 590 285.5" opacity="1"></path><path fill="none" stroke="#e6e6e6" stroke-width="1" class="highcharts-grid-line" d="M 63 226.5 L 590 226.5" opacity="1"></path><path fill="none" stroke="#e6e6e6" stroke-width="1" class="highcharts-grid-line" d="M 63 166.5 L 590 166.5" opacity="1"></path><path fill="none" stroke="#e6e6e6" stroke-width="1" class="highcharts-grid-line" d="M 63 107.5 L 590 107.5" opacity="1"></path><path fill="none" stroke="#e6e6e6" stroke-width="1" class="highcharts-grid-line" d="M 63 46.5 L 590 46.5" opacity="1"></path></g><rect fill="none" class="highcharts-plot-border" x="63" y="47" width="527" height="298"></rect><g class="highcharts-axis highcharts-xaxis "><path fill="none" class="highcharts-tick" stroke="#ccd6eb" stroke-width="1" d="M 188.5 345 L 188.5 355" opacity="1"></path><path fill="none" class="highcharts-tick" stroke="#ccd6eb" stroke-width="1" d="M 316.5 345 L 316.5 355" opacity="1"></path><path fill="none" class="highcharts-tick" stroke="#ccd6eb" stroke-width="1" d="M 444.5 345 L 444.5 355" opacity="1"></path><path fill="none" class="highcharts-tick" stroke="#ccd6eb" stroke-width="1" d="M 571.5 345 L 571.5 355" opacity="1"></path><text x="326.5" text-anchor="middle" transform="translate(0,0)" class="highcharts-axis-title" style="color:#666666;fill:#666666;" y="383"><tspan>Position (bp)</tspan></text><path fill="none" class="highcharts-axis-line" stroke="#ccd6eb" stroke-width="1" d="M 63 345.5 L 590 345.5"></path></g><g class="highcharts-axis highcharts-yaxis "><text x="24.0859375" text-anchor="middle" transform="translate(0,0) rotate(270 24.0859375 196)" class="highcharts-axis-title" style="color:#666666;fill:#666666;" y="196"><tspan>Phred Score</tspan></text><path fill="none" class="highcharts-axis-line" d="M 63 47 L 63 345"></path></g><g class="highcharts-series-group"><g class="highcharts-series highcharts-series-0 highcharts-line-series highcharts-color-undefined " transform="translate(63,47) scale(1 1)" width="298" height="527" clip-path="url(#highcharts-ab8a1d6-133)"><path fill="none" d="M 5.1666666666667 81.27850183871632 L 11.545267489712 71.02214767703069 L 17.923868312757 71.27464402072465 L 24.302469135802 71.925165418396 L 30.681069958848 71.58745830785236 L 37.059670781893 72.03795104975237 L 43.438271604938 63.038000487913195 L 49.816872427984 63.38145616179938 L 56.195473251029 63.63700037367266 L 62.574074074074 63.6242171523223 L 75.331275720165 63.541325708486994 L 88.088477366255 63.83343345696932 L 100.84567901235 64.08775686343111 L 113.60288065844 64.85679794707829 L 126.36008230453 65.13359743822971 L 139.11728395062 65.69308385308142 L 151.87448559671 66.25494658950242 L 164.6316872428 67.3021069399305 L 177.38888888889 68.68815478915661 L 190.14609053498 69.61350300981235 L 202.90329218107 69.36260936184743 L 215.66049382716 69.04541084951322 L 228.41769547325 69.06218448787286 L 241.17489711934 68.82024686738342 L 253.93209876543 69.21704127074437 L 266.68930041152 70.0300919749408 L 279.44650205761 70.99535369272562 L 292.2037037037 71.16812667589747 L 304.96090534979 71.76718926006728 L 317.71810699588 73.09802001835155 L 330.47530864198 74.23883521244832 L 343.23251028807 75.5675679057448 L 355.98971193416 77.34732498200756 L 368.74691358025 79.97517651033561 L 381.50411522634 83.03417806188568 L 394.26131687243 83.18672381244173 L 407.01851851852 85.30221066756297 L 419.77572016461 87.77470019855599 L 432.5329218107 92.51780126074962 L 445.29012345679 92.31684767388342 L 458.04732510288 92.58145880132975 L 470.80452674897 94.66921223232805 L 483.56172839506 96.64817044897927 L 496.31893004115 98.33074395285848 L 509.07613168724 100.70591000592415 L 521.83333333333 102.7410195716484" class="highcharts-graph" stroke="#5cb85c" stroke-width="2" stroke-linejoin="round" stroke-linecap="round"></path></g><g class="highcharts-markers highcharts-series-0 highcharts-line-series highcharts-color-undefined " transform="translate(63,47) scale(1 1)" width="298" height="527" clip-path="none"></g></g><text x="330" text-anchor="middle" class="highcharts-title" style="color:#333333;font-size:18px;fill:#333333;width:536px;" y="24"><tspan>FastQC: Mean Quality Scores</tspan></text><g class="highcharts-axis-labels highcharts-xaxis-labels "><text x="189.3600823045267" style="color:#666666;cursor:default;font-size:11px;fill:#666666;width:166px;text-overflow:clip;" text-anchor="middle" transform="translate(0,0)" y="364" opacity="1"><tspan>20</tspan></text><text x="316.9320987654321" style="color:#666666;cursor:default;font-size:11px;fill:#666666;width:166px;text-overflow:clip;" text-anchor="middle" transform="translate(0,0)" y="364" opacity="1"><tspan>40</tspan></text><text x="444.50411522633743" style="color:#666666;cursor:default;font-size:11px;fill:#666666;width:166px;text-overflow:clip;" text-anchor="middle" transform="translate(0,0)" y="364" opacity="1"><tspan>60</tspan></text><text x="572.0761316872428" style="color:#666666;cursor:default;font-size:11px;fill:#666666;width:166px;text-overflow:clip;" text-anchor="middle" transform="translate(0,0)" y="364" opacity="1"><tspan>80</tspan></text></g><g class="highcharts-axis-labels highcharts-yaxis-labels "><text x="48" style="color:#666666;cursor:default;font-size:11px;fill:#666666;width:188px;text-overflow:clip;" text-anchor="end" transform="translate(0,0)" y="350" opacity="1"><tspan>0</tspan></text><text x="48" style="color:#666666;cursor:default;font-size:11px;fill:#666666;width:188px;text-overflow:clip;" text-anchor="end" transform="translate(0,0)" y="290" opacity="1"><tspan>10</tspan></text><text x="48" style="color:#666666;cursor:default;font-size:11px;fill:#666666;width:188px;text-overflow:clip;" text-anchor="end" transform="translate(0,0)" y="230" opacity="1"><tspan>20</tspan></text><text x="48" style="color:#666666;cursor:default;font-size:11px;fill:#666666;width:188px;text-overflow:clip;" text-anchor="end" transform="translate(0,0)" y="171" opacity="1"><tspan>30</tspan></text><text x="48" style="color:#666666;cursor:default;font-size:11px;fill:#666666;width:188px;text-overflow:clip;" text-anchor="end" transform="translate(0,0)" y="111" opacity="1"><tspan>40</tspan></text><text x="48" style="color:#666666;cursor:default;font-size:11px;fill:#666666;width:188px;text-overflow:clip;" text-anchor="end" transform="translate(0,0)" y="52" opacity="1"><tspan>50</tspan></text></g><text x="590" class="highcharts-credits" text-anchor="end" style="cursor:pointer;color:#999999;font-size:9px;fill:#999999;" y="395"><tspan>Created with MultiQC</tspan></text></svg>