<svg xmlns:xlink="http://www.w3.org/1999/xlink" version="1.1" class="highcharts-root" style="font-family:&quot;lucida grande&quot;, &quot;lucida sans unicode&quot;, arial, helvetica, sans-serif;font-size:12px;" xmlns="http://www.w3.org/2000/svg" width="600" height="400"><desc>Created with Highcharts 5.0.6</desc><defs><clipPath id="highcharts-zhqs3b0-102"><rect x="0" y="0" width="513" height="275" fill="none"></rect></clipPath></defs><rect fill="#ffffff" class="highcharts-background" x="0" y="0" width="600" height="400" rx="0" ry="0"></rect><rect fill="none" class="highcharts-plot-background" x="77" y="47" width="513" height="275"></rect><g class="highcharts-grid highcharts-xaxis-grid "><path fill="none" class="highcharts-grid-line" d="M 108.5 47 L 108.5 322" opacity="1"></path><path fill="none" class="highcharts-grid-line" d="M 140.5 47 L 140.5 322" opacity="1"></path><path fill="none" class="highcharts-grid-line" d="M 172.5 47 L 172.5 322" opacity="1"></path><path fill="none" class="highcharts-grid-line" d="M 204.5 47 L 204.5 322" opacity="1"></path><path fill="none" class="highcharts-grid-line" d="M 236.5 47 L 236.5 322" opacity="1"></path><path fill="none" class="highcharts-grid-line" d="M 268.5 47 L 268.5 322" opacity="1"></path><path fill="none" class="highcharts-grid-line" d="M 300.5 47 L 300.5 322" opacity="1"></path><path fill="none" class="highcharts-grid-line" d="M 333.5 47 L 333.5 322" opacity="1"></path><path fill="none" class="highcharts-grid-line" d="M 365.5 47 L 365.5 322" opacity="1"></path><path fill="none" class="highcharts-grid-line" d="M 397.5 47 L 397.5 322" opacity="1"></path><path fill="none" class="highcharts-grid-line" d="M 429.5 47 L 429.5 322" opacity="1"></path><path fill="none" class="highcharts-grid-line" d="M 461.5 47 L 461.5 322" opacity="1"></path><path fill="none" class="highcharts-grid-line" d="M 493.5 47 L 493.5 322" opacity="1"></path><path fill="none" class="highcharts-grid-line" d="M 525.5 47 L 525.5 322" opacity="1"></path><path fill="none" class="highcharts-grid-line" d="M 557.5 47 L 557.5 322" opacity="1"></path><path fill="none" class="highcharts-grid-line" d="M 589.5 47 L 589.5 322" opacity="1"></path><path fill="none" class="highcharts-grid-line" d="M 76.5 47 L 76.5 322" opacity="1"></path></g><g class="highcharts-grid highcharts-yaxis-grid "><path fill="none" stroke="#e6e6e6" stroke-width="1" class="highcharts-grid-line" d="M 77 322.5 L 590 322.5" opacity="1"></path><path fill="none" stroke="#e6e6e6" stroke-width="1" class="highcharts-grid-line" d="M 77 253.5 L 590 253.5" opacity="1"></path><path fill="none" stroke="#e6e6e6" stroke-width="1" class="highcharts-grid-line" d="M 77 185.5 L 590 185.5" opacity="1"></path><path fill="none" stroke="#e6e6e6" stroke-width="1" class="highcharts-grid-line" d="M 77 116.5 L 590 116.5" opacity="1"></path><path fill="none" stroke="#e6e6e6" stroke-width="1" class="highcharts-grid-line" d="M 77 46.5 L 590 46.5" opacity="1"></path></g><rect fill="none" class="highcharts-plot-border" x="77" y="47" width="513" height="275"></rect><g class="highcharts-axis highcharts-xaxis "><path fill="none" class="highcharts-tick" stroke="#ccd6eb" stroke-width="1" d="M 108.5 322 L 108.5 332" opacity="1"></path><path fill="none" class="highcharts-tick" stroke="#ccd6eb" stroke-width="1" d="M 140.5 322 L 140.5 332" opacity="1"></path><path fill="none" class="highcharts-tick" stroke="#ccd6eb" stroke-width="1" d="M 172.5 322 L 172.5 332" opacity="1"></path><path fill="none" class="highcharts-tick" stroke="#ccd6eb" stroke-width="1" d="M 204.5 322 L 204.5 332" opacity="1"></path><path fill="none" class="highcharts-tick" stroke="#ccd6eb" stroke-width="1" d="M 236.5 322 L 236.5 332" opacity="1"></path><path fill="none" class="highcharts-tick" stroke="#ccd6eb" stroke-width="1" d="M 268.5 322 L 268.5 332" opacity="1"></path><path fill="none" class="highcharts-tick" stroke="#ccd6eb" stroke-width="1" d="M 300.5 322 L 300.5 332" opacity="1"></path><path fill="none" class="highcharts-tick" stroke="#ccd6eb" stroke-width="1" d="M 333.5 322 L 333.5 332" opacity="1"></path><path fill="none" class="highcharts-tick" stroke="#ccd6eb" stroke-width="1" d="M 365.5 322 L 365.5 332" opacity="1"></path><path fill="none" class="highcharts-tick" stroke="#ccd6eb" stroke-width="1" d="M 397.5 322 L 397.5 332" opacity="1"></path><path fill="none" class="highcharts-tick" stroke="#ccd6eb" stroke-width="1" d="M 429.5 322 L 429.5 332" opacity="1"></path><path fill="none" class="highcharts-tick" stroke="#ccd6eb" stroke-width="1" d="M 461.5 322 L 461.5 332" opacity="1"></path><path fill="none" class="highcharts-tick" stroke="#ccd6eb" stroke-width="1" d="M 493.5 322 L 493.5 332" opacity="1"></path><path fill="none" class="highcharts-tick" stroke="#ccd6eb" stroke-width="1" d="M 525.5 322 L 525.5 332" opacity="1"></path><path fill="none" class="highcharts-tick" stroke="#ccd6eb" stroke-width="1" d="M 557.5 322 L 557.5 332" opacity="1"></path><path fill="none" class="highcharts-tick" stroke="#ccd6eb" stroke-width="1" d="M 590.5 322 L 590.5 332" opacity="1"></path><path fill="none" class="highcharts-tick" stroke="#ccd6eb" stroke-width="1" d="M 76.5 322 L 76.5 332" opacity="1"></path><text x="333.5" text-anchor="middle" transform="translate(0,0)" class="highcharts-axis-title" style="color:#666666;fill:#666666;" y="382.9464361342255"><tspan>Sequence Duplication Level</tspan></text><path fill="none" class="highcharts-axis-line" stroke="#ccd6eb" stroke-width="1" d="M 77 322.5 L 590 322.5"></path></g><g class="highcharts-axis highcharts-yaxis "><text x="23.7734375" text-anchor="middle" transform="translate(0,0) rotate(270 23.7734375 184.5)" class="highcharts-axis-title" style="color:#666666;fill:#666666;" y="184.5"><tspan>% of Library</tspan></text><path fill="none" class="highcharts-axis-line" d="M 77 47 L 77 322"></path></g><g class="highcharts-series-group"><g class="highcharts-series highcharts-series-0 highcharts-line-series highcharts-color-undefined " transform="translate(77,47) scale(1 1)" width="275" height="513" clip-path="url(#highcharts-zhqs3b0-102)"><path fill="none" d="M 16.03125 32.03646936807587 L 48.09375 257.70500278360436 L 80.15625 270.5680899379914 L 112.21875 272.6596030442725 L 144.28125 273.5154068628353 L 176.34375 274.1461084103838 L 208.40625 274.2804145324461 L 240.46875 274.4471762502875 L 272.53125 274.5272115338952 L 304.59375 271.30928805729957 L 336.65625 274.81929014592777 L 368.71875 274.98593907298056 L 400.78125 275 L 432.84375 275 L 464.90625 275 L 496.96875 275" class="highcharts-graph" stroke="rgb(228, 26, 28)" stroke-width="2" stroke-linejoin="round" stroke-linecap="round"></path></g><g class="highcharts-markers highcharts-series-0 highcharts-line-series highcharts-color-undefined " transform="translate(77,47) scale(1 1)" width="275" height="513" clip-path="none"></g><g class="highcharts-series highcharts-series-1 highcharts-line-series highcharts-color-undefined " transform="translate(77,47) scale(1 1)" width="275" height="513" clip-path="url(#highcharts-zhqs3b0-102)"><path fill="none" d="M 16.03125 6.841557377759159 L 48.09375 270.20972990836304 L 80.15625 274.0645759807469 L 112.21875 274.59002218921927 L 144.28125 274.7337879461519 L 176.34375 274.82825198278294 L 208.40625 274.92644880656326 L 240.46875 274.94031202531016 L 272.53125 274.98286568827103 L 304.59375 274.88244809483234 L 336.65625 275 L 368.71875 275 L 400.78125 275 L 432.84375 275 L 464.90625 275 L 496.96875 275" class="highcharts-graph" stroke="rgb(55, 126, 184)" stroke-width="2" stroke-linejoin="round" stroke-linecap="round"></path></g><g class="highcharts-markers highcharts-series-1 highcharts-line-series highcharts-color-undefined " transform="translate(77,47) scale(1 1)" width="275" height="513" clip-path="none"></g></g><text x="330" text-anchor="middle" class="highcharts-title" style="color:#333333;font-size:18px;fill:#333333;width:536px;" y="24"><tspan>FastQC: Sequence Duplication Levels</tspan></text><g class="highcharts-axis-labels highcharts-xaxis-labels "><text x="95.62397486435067" style="color:#666666;cursor:default;font-size:11px;fill:#666666;width:400px;text-overflow:ellipsis;" text-anchor="end" transform="translate(0,0) rotate(-45 95.62397486435067 338)" y="338" opacity="1"><tspan>1</tspan></text><text x="127.68647486435069" style="color:#666666;cursor:default;font-size:11px;fill:#666666;width:400px;text-overflow:ellipsis;" text-anchor="end" transform="translate(0,0) rotate(-45 127.68647486435069 338)" y="338" opacity="1"><tspan>2</tspan></text><text x="159.74897486435069" style="color:#666666;cursor:default;font-size:11px;fill:#666666;width:400px;text-overflow:ellipsis;" text-anchor="end" transform="translate(0,0) rotate(-45 159.74897486435069 338)" y="338" opacity="1"><tspan>3</tspan></text><text x="191.81147486435069" style="color:#666666;cursor:default;font-size:11px;fill:#666666;width:400px;text-overflow:ellipsis;" text-anchor="end" transform="translate(0,0) rotate(-45 191.81147486435069 338)" y="338" opacity="1"><tspan>4</tspan></text><text x="223.87397486435069" style="color:#666666;cursor:default;font-size:11px;fill:#666666;width:400px;text-overflow:ellipsis;" text-anchor="end" transform="translate(0,0) rotate(-45 223.87397486435069 338)" y="338" opacity="1"><tspan>5</tspan></text><text x="255.93647486435066" style="color:#666666;cursor:default;font-size:11px;fill:#666666;width:400px;text-overflow:ellipsis;" text-anchor="end" transform="translate(0,0) rotate(-45 255.93647486435066 338)" y="338" opacity="1"><tspan>6</tspan></text><text x="287.99897486435066" style="color:#666666;cursor:default;font-size:11px;fill:#666666;width:400px;text-overflow:ellipsis;" text-anchor="end" transform="translate(0,0) rotate(-45 287.99897486435066 338)" y="338" opacity="1"><tspan>7</tspan></text><text x="320.06147486435066" style="color:#666666;cursor:default;font-size:11px;fill:#666666;width:400px;text-overflow:ellipsis;" text-anchor="end" transform="translate(0,0) rotate(-45 320.06147486435066 338)" y="338" opacity="1"><tspan>8</tspan></text><text x="352.12397486435066" style="color:#666666;cursor:default;font-size:11px;fill:#666666;width:400px;text-overflow:ellipsis;" text-anchor="end" transform="translate(0,0) rotate(-45 352.12397486435066 338)" y="338" opacity="1"><tspan>9</tspan></text><text x="384.18647486435066" style="color:#666666;cursor:default;font-size:11px;fill:#666666;width:400px;text-overflow:ellipsis;" text-anchor="end" transform="translate(0,0) rotate(-45 384.18647486435066 338)" y="338" opacity="1"><tspan>&gt;10</tspan></text><text x="416.24897486435066" style="color:#666666;cursor:default;font-size:11px;fill:#666666;width:400px;text-overflow:ellipsis;" text-anchor="end" transform="translate(0,0) rotate(-45 416.24897486435066 338)" y="338" opacity="1"><tspan>&gt;50</tspan></text><text x="448.31147486435066" style="color:#666666;cursor:default;font-size:11px;fill:#666666;width:400px;text-overflow:ellipsis;" text-anchor="end" transform="translate(0,0) rotate(-45 448.31147486435066 338)" y="338" opacity="1"><tspan>&gt;100</tspan></text><text x="480.37397486435066" style="color:#666666;cursor:default;font-size:11px;fill:#666666;width:400px;text-overflow:ellipsis;" text-anchor="end" transform="translate(0,0) rotate(-45 480.37397486435066 338)" y="338" opacity="1"><tspan>&gt;500</tspan></text><text x="512.4364748643507" style="color:#666666;cursor:default;font-size:11px;fill:#666666;width:400px;text-overflow:ellipsis;" text-anchor="end" transform="translate(0,0) rotate(-45 512.4364748643507 338)" y="338" opacity="1"><tspan>&gt;1k</tspan></text><text x="544.4989748643507" style="color:#666666;cursor:default;font-size:11px;fill:#666666;width:400px;text-overflow:ellipsis;" text-anchor="end" transform="translate(0,0) rotate(-45 544.4989748643507 338)" y="338" opacity="1"><tspan>&gt;5k</tspan></text><text x="576.5614748643507" style="color:#666666;cursor:default;font-size:11px;fill:#666666;width:400px;text-overflow:ellipsis;" text-anchor="end" transform="translate(0,0) rotate(-45 576.5614748643507 338)" y="338" opacity="1"><tspan>&gt;10k+</tspan></text></g><g class="highcharts-axis-labels highcharts-yaxis-labels "><text x="62" style="color:#666666;cursor:default;font-size:11px;fill:#666666;width:188px;text-overflow:clip;" text-anchor="end" transform="translate(0,0)" y="327" opacity="1"><tspan>0%</tspan></text><text x="62" style="color:#666666;cursor:default;font-size:11px;fill:#666666;width:188px;text-overflow:clip;" text-anchor="end" transform="translate(0,0)" y="258" opacity="1"><tspan>25%</tspan></text><text x="62" style="color:#666666;cursor:default;font-size:11px;fill:#666666;width:188px;text-overflow:clip;" text-anchor="end" transform="translate(0,0)" y="189" opacity="1"><tspan>50%</tspan></text><text x="62" style="color:#666666;cursor:default;font-size:11px;fill:#666666;width:188px;text-overflow:clip;" text-anchor="end" transform="translate(0,0)" y="120" opacity="1"><tspan>75%</tspan></text><text x="62" style="color:#666666;cursor:default;font-size:11px;fill:#666666;width:188px;text-overflow:clip;" text-anchor="end" transform="translate(0,0)" y="52" opacity="1"><tspan>100%</tspan></text></g><text x="590" class="highcharts-credits" text-anchor="end" style="cursor:pointer;color:#999999;font-size:9px;fill:#999999;" y="395"><tspan>Created with MultiQC</tspan></text></svg>