<svg xmlns:xlink="http://www.w3.org/1999/xlink" version="1.1" class="highcharts-root" style="font-family:&quot;lucida grande&quot;, &quot;lucida sans unicode&quot;, arial, helvetica, sans-serif;font-size:12px;" xmlns="http://www.w3.org/2000/svg" width="600" height="400"><desc>Created with Highcharts 5.0.6</desc><defs><clipPath id="highcharts-zhqs3b0-34"><rect x="0" y="0" width="261" height="400" fill="none"></rect></clipPath></defs><rect fill="#ffffff" class="highcharts-background" x="0" y="0" width="600" height="400" rx="0" ry="0"></rect><rect fill="none" class="highcharts-plot-background" x="190" y="47" width="400" height="261"></rect><g class="highcharts-grid highcharts-xaxis-grid "><path fill="none" class="highcharts-grid-line" d="M 190 178.5 L 590 178.5" opacity="1"></path><path fill="none" class="highcharts-grid-line" d="M 190 308.5 L 590 308.5" opacity="1"></path><path fill="none" class="highcharts-grid-line" d="M 190 47.5 L 590 47.5" opacity="1"></path></g><g class="highcharts-grid highcharts-yaxis-grid "><path fill="none" stroke="#e6e6e6" stroke-width="1" class="highcharts-grid-line" d="M 189.5 47 L 189.5 308" opacity="1"></path><path fill="none" stroke="#e6e6e6" stroke-width="1" class="highcharts-grid-line" d="M 256.5 47 L 256.5 308" opacity="1"></path><path fill="none" stroke="#e6e6e6" stroke-width="1" class="highcharts-grid-line" d="M 322.5 47 L 322.5 308" opacity="1"></path><path fill="none" stroke="#e6e6e6" stroke-width="1" class="highcharts-grid-line" d="M 389.5 47 L 389.5 308" opacity="1"></path><path fill="none" stroke="#e6e6e6" stroke-width="1" class="highcharts-grid-line" d="M 456.5 47 L 456.5 308" opacity="1"></path><path fill="none" stroke="#e6e6e6" stroke-width="1" class="highcharts-grid-line" d="M 522.5 47 L 522.5 308" opacity="1"></path><path fill="none" stroke="#e6e6e6" stroke-width="1" class="highcharts-grid-line" d="M 590.5 47 L 590.5 308" opacity="1"></path></g><rect fill="none" class="highcharts-plot-border" x="190" y="47" width="400" height="261"></rect><g class="highcharts-axis highcharts-xaxis "><path fill="none" class="highcharts-tick" stroke="#ccd6eb" stroke-width="1" d="M 190 178.5 L 180 178.5" opacity="1"></path><path fill="none" class="highcharts-tick" stroke="#ccd6eb" stroke-width="1" d="M 190 308.5 L 180 308.5" opacity="1"></path><path fill="none" class="highcharts-tick" stroke="#ccd6eb" stroke-width="1" d="M 190 46.5 L 180 46.5" opacity="1"></path><path fill="none" class="highcharts-axis-line" stroke="#ccd6eb" stroke-width="1" d="M 189.5 47 L 189.5 308"></path></g><g class="highcharts-axis highcharts-yaxis "><text x="390" text-anchor="middle" transform="translate(0,0)" class="highcharts-axis-title" style="color:#666666;fill:#666666;" y="346"><tspan>Number of reads</tspan></text><path fill="none" class="highcharts-axis-line" d="M 190 308 L 590 308"></path></g><g class="highcharts-series-group"><g class="highcharts-series highcharts-series-0 highcharts-bar-series highcharts-color-0 " transform="translate(590,308) rotate(90) scale(-1,1) scale(1 1)" width="400" height="261" clip-path="url(#highcharts-zhqs3b0-34)"><rect x="146" y="69" width="101" height="332" fill="#7cb5ec" class="highcharts-point highcharts-color-0"></rect><rect x="15" y="53" width="101" height="348" fill="#7cb5ec" class="highcharts-point highcharts-color-0"></rect></g><g class="highcharts-markers highcharts-series-0 highcharts-bar-series highcharts-color-0 " transform="translate(590,308) rotate(90) scale(-1,1) scale(1 1)" width="400" height="261" clip-path="none"></g><g class="highcharts-series highcharts-series-1 highcharts-bar-series highcharts-color-1 " transform="translate(590,308) rotate(90) scale(-1,1) scale(1 1)" width="400" height="261" clip-path="url(#highcharts-zhqs3b0-34)"><rect x="146" y="42" width="101" height="27" fill="#434348" class="highcharts-point highcharts-color-1"></rect><rect x="15" y="48" width="101" height="5" fill="#434348" class="highcharts-point highcharts-color-1"></rect></g><g class="highcharts-markers highcharts-series-1 highcharts-bar-series highcharts-color-1 " transform="translate(590,308) rotate(90) scale(-1,1) scale(1 1)" width="400" height="261" clip-path="none"></g></g><text x="300" text-anchor="middle" class="highcharts-title" style="color:#333333;font-size:18px;fill:#333333;width:536px;" y="24"><tspan>FastQC: Sequence Counts</tspan></text><g class="highcharts-legend" transform="translate(169,360)"><rect fill="none" class="highcharts-legend-box" rx="0" ry="0" x="0" y="0" width="262" height="25" visibility="visible"></rect><g><g><g class="highcharts-legend-item highcharts-bar-series highcharts-color-0 highcharts-series-0" transform="translate(8,3)"><text x="21" style="color:#333333;font-size:12px;font-weight:bold;cursor:pointer;fill:#333333;" text-anchor="start" y="15"><tspan>Unique Reads</tspan></text><rect x="2" y="4" width="12" height="12" fill="#7cb5ec" rx="6" ry="6" class="highcharts-point"></rect></g><g class="highcharts-legend-item highcharts-bar-series highcharts-color-1 highcharts-series-1" transform="translate(133.5390625,3)"><text x="21" y="15" style="color:#333333;font-size:12px;font-weight:bold;cursor:pointer;fill:#333333;" text-anchor="start"><tspan>Duplicate Reads</tspan></text><rect x="2" y="4" width="12" height="12" fill="#434348" rx="6" ry="6" class="highcharts-point"></rect></g></g></g></g><g class="highcharts-axis-labels highcharts-xaxis-labels "><text x="175" style="color:#666666;cursor:default;font-size:11px;fill:#666666;width:188px;text-overflow:clip;" text-anchor="end" transform="translate(0,0)" y="110" opacity="1"><tspan>IRIS_313-</tspan><tspan dy="14" x="175">11895.aligned_mapped.bam</tspan><title>IRIS_313-11895.aligned_mapped.bam</title></text><text x="175" style="color:#666666;cursor:default;font-size:11px;fill:#666666;width:188px;text-overflow:clip;" text-anchor="end" transform="translate(0,0)" y="247" opacity="1"><tspan>IRIS_313-11895.markdup.bam</tspan></text></g><g class="highcharts-axis-labels highcharts-yaxis-labels "><text x="190" style="color:#666666;cursor:default;font-size:11px;fill:#666666;" text-anchor="middle" transform="translate(0,0)" y="327" opacity="1">0</text><text x="256.6666666666667" style="color:#666666;cursor:default;font-size:11px;fill:#666666;" text-anchor="middle" transform="translate(0,0)" y="327" opacity="1">2M</text><text x="323.33333333333337" style="color:#666666;cursor:default;font-size:11px;fill:#666666;" text-anchor="middle" transform="translate(0,0)" y="327" opacity="1">4M</text><text x="390" style="color:#666666;cursor:default;font-size:11px;fill:#666666;" text-anchor="middle" transform="translate(0,0)" y="327" opacity="1">6M</text><text x="456.6666666666667" style="color:#666666;cursor:default;font-size:11px;fill:#666666;" text-anchor="middle" transform="translate(0,0)" y="327" opacity="1">8M</text><text x="523.3333333333334" style="color:#666666;cursor:default;font-size:11px;fill:#666666;" text-anchor="middle" transform="translate(0,0)" y="327" opacity="1">10M</text><text x="578.3046875" style="color:#666666;cursor:default;font-size:11px;fill:#666666;" text-anchor="middle" transform="translate(0,0)" y="327" opacity="1">12M</text></g><text x="590" class="highcharts-credits" text-anchor="end" style="cursor:pointer;color:#999999;font-size:9px;fill:#999999;" y="395"><tspan>Created with MultiQC</tspan></text></svg>