<svg width="4615" height="1407" xmlns="http://www.w3.org/2000/svg" xmlns:xlink="http://www.w3.org/1999/xlink" xml:space="preserve" overflow="hidden"><defs><clipPath id="clip0"><rect x="-293" y="765" width="4615" height="1407"/></clipPath></defs><g clip-path="url(#clip0)" transform="translate(293 -765)"><rect x="201" y="1108" width="1712" height="60.0001" fill="#FCB801" fill-opacity="1"/><rect x="1913" y="1108" width="325" height="60.0001" fill="#3B67BE" fill-opacity="1"/><rect x="-125" y="1108" width="326" height="60.0001" fill="#BB0000" fill-opacity="1"/><text fill="#000000" fill-opacity="1" font-family="Times New Roman,Times New Roman_MSFontService,sans-serif" font-style="normal" font-variant="normal" font-weight="400" font-stretch="normal" font-size="83" text-anchor="start" direction="ltr" writing-mode="lr-tb" unicode-bidi="normal" text-decoration="none" transform="matrix(1 0 0 1 -91.723 963)">DNA</text><rect x="136" y="889" width="345" height="90.0001" fill="#FCB801" fill-opacity="1"/><rect x="534" y="889" width="251" height="90.0001" fill="#FCB801" fill-opacity="1"/><rect x="838" y="889" width="287" height="90.0001" fill="#FCB801" fill-opacity="1"/><rect x="1177" y="889" width="409" height="90.0001" fill="#FCB801" fill-opacity="1"/><rect x="1638" y="889" width="287" height="90.0001" fill="#FCB801" fill-opacity="1"/><rect x="1977" y="889" width="287" height="90.0001" fill="#FCB801" fill-opacity="1"/><rect x="201" y="1195" width="1712" height="60.0001" fill="#FCB801" fill-opacity="1"/><rect x="1913" y="1195" width="325" height="60.0001" fill="#3B67BE" fill-opacity="1"/><rect x="-125" y="1195" width="326" height="60.0001" fill="#BB0000" fill-opacity="1"/><text fill="#000000" fill-opacity="1" font-family="Times New Roman,Times New Roman_MSFontService,sans-serif" font-style="normal" font-variant="normal" font-weight="400" font-stretch="normal" font-size="73" text-anchor="start" direction="ltr" writing-mode="lr-tb" unicode-bidi="normal" text-decoration="none" transform="matrix(1 0 0 1 -134.395 1387)">Adaptors</text><text fill="#000000" fill-opacity="1" font-family="Times New Roman,Times New Roman_MSFontService,sans-serif" font-style="normal" font-variant="normal" font-weight="400" font-stretch="normal" font-size="73" text-anchor="start" direction="ltr" writing-mode="lr-tb" unicode-bidi="normal" text-decoration="none" transform="matrix(1 0 0 1 1968.58 1387)">Adaptors</text><rect x="2291" y="2120.38" width="1453.62" height="48.624" fill="#C2C2C2" fill-opacity="1"/><path d="M3744.62 2120.38 4319 1546 4319 1594.62 3744.62 2169Z" fill="#9C9C9C" fill-rule="evenodd" fill-opacity="1"/><path d="M2291 2120.38 2865.38 1546 4319 1546 3744.62 2120.38Z" fill="#CECECE" fill-rule="evenodd" fill-opacity="1"/><rect x="2628" y="1980" width="13" height="49.0001" fill="#000000" fill-opacity="1"/><rect x="2620" y="1905" width="28.9998" height="96.9999" fill="#3B67BE" fill-opacity="1"/><rect x="2780" y="1921" width="13" height="49.0001" fill="#000000" fill-opacity="1"/><rect x="2771" y="1846" width="30" height="96.9999" fill="#BB0000" fill-opacity="1"/><rect x="2915" y="1857" width="13" height="48.0001" fill="#000000" fill-opacity="1"/><rect x="2907" y="1782" width="28.9998" height="95.9999" fill="#BB0000" fill-opacity="1"/><rect x="3032" y="1932" width="13" height="48.0001" fill="#000000" fill-opacity="1"/><rect x="3024" y="1857" width="30" height="95.9999" fill="#3B67BE" fill-opacity="1"/><rect x="3161" y="1959" width="12.9998" height="48.9998" fill="#000000" fill-opacity="1"/><rect x="3153" y="1884" width="29.0002" height="95.9999" fill="#3B67BE" fill-opacity="1"/><rect x="3277" y="1773" width="13" height="47.9998" fill="#000000" fill-opacity="1"/><rect x="3268" y="1698" width="30" height="95.9999" fill="#BB0000" fill-opacity="1"/><rect x="3381" y="1967" width="12.9998" height="48.0001" fill="#000000" fill-opacity="1"/><rect x="3373" y="1892" width="29.0002" height="95.9999" fill="#BB0000" fill-opacity="1"/><rect x="3496" y="1825" width="14" height="49.0001" fill="#000000" fill-opacity="1"/><rect x="3488" y="1750" width="30" height="95.9999" fill="#BB0000" fill-opacity="1"/><rect x="3618" y="1980" width="13" height="49.0001" fill="#000000" fill-opacity="1"/><rect x="3610" y="1905" width="28.9998" height="96.9999" fill="#3B67BE" fill-opacity="1"/><rect x="3729" y="1896" width="14" height="47.9998" fill="#000000" fill-opacity="1"/><rect x="3721" y="1821" width="30" height="96.0002" fill="#BB0000" fill-opacity="1"/><path d="M2732.86 929.879 2758.09 939.948 2712.02 1055.37 2686.79 1045.3Z" fill="#3B67BE" fill-rule="nonzero" fill-opacity="1"/><rect x="2766" y="1424" width="25.9998" height="116" fill="#BB0000" fill-opacity="1"/><path d="M2705.19 1032C2685.04 1092.64 2659.17 1166.9 2682.22 1226.02 2709.25 1295.35 2779 1347.38 2779 1424" stroke="#FCB801" stroke-width="27.5" stroke-linecap="butt" stroke-linejoin="round" stroke-miterlimit="10" stroke-opacity="1" fill="none" fill-rule="evenodd"/><path d="M3134.78 767.835 3160 777.904 3117.56 884.232 3092.34 874.163Z" fill="#BB0000" fill-rule="nonzero" fill-opacity="1"/><rect x="3171" y="1223" width="26.9998" height="107" fill="#3B67BE" fill-opacity="1"/><path d="M3110.19 863C3090.04 918.692 3064.17 986.888 3087.22 1041.18 3114.25 1104.85 3184 1152.63 3184 1223" stroke="#FCB801" stroke-width="27.5" stroke-linecap="butt" stroke-linejoin="round" stroke-miterlimit="10" stroke-opacity="1" fill="none" fill-rule="evenodd"/><rect x="0" y="0" width="27.1615" height="116.484" fill="#BB0000" fill-opacity="1" transform="matrix(-0.928751 0.370703 0.370703 0.928751 3780.78 803.583)"/><rect x="0" y="0" width="27.0002" height="109" fill="#3B67BE" fill-opacity="1" transform="matrix(-1 0 0 1 3745 1267)"/><path d="M32.1863 0C12.0405 56.7746-13.8276 126.297 9.21542 181.644 36.2479 246.557 106 295.264 106 367" stroke="#FCB801" stroke-width="27.5" stroke-linecap="butt" stroke-linejoin="round" stroke-miterlimit="10" stroke-opacity="1" fill="none" fill-rule="evenodd" transform="matrix(-1 0 0 1 3837 900)"/><rect x="201" y="1582" width="1712" height="60.0001" fill="#FCB801" fill-opacity="1"/><rect x="1913" y="1582" width="325" height="60.0001" fill="#3B67BE" fill-opacity="1"/><rect x="-125" y="1582" width="326" height="60.0001" fill="#BB0000" fill-opacity="1"/><rect x="201" y="2000" width="1712" height="60.0001" fill="#FCB801" fill-opacity="1"/><rect x="1913" y="2000" width="325" height="60.0001" fill="#3B67BE" fill-opacity="1"/><rect x="-125" y="2000" width="326" height="60.0001" fill="#BB0000" fill-opacity="1"/><path d="M1614.5 930C1614.5 870.077 1690.39 821.5 1784 821.5 1877.61 821.5 1953.5 870.077 1953.5 930 1953.5 989.923 1877.61 1038.5 1784 1038.5 1690.39 1038.5 1614.5 989.923 1614.5 930Z" stroke="#FDB800" stroke-width="9.16667" stroke-linecap="square" stroke-linejoin="round" stroke-miterlimit="10" stroke-dasharray="27.5 9.16667" stroke-opacity="1" fill="none" fill-rule="evenodd"/><path d="M1788.08 1038.5 1788.08 1056.83C1788.08 1059.36 1786.03 1061.42 1783.5 1061.42 1780.97 1061.42 1778.92 1059.36 1778.92 1056.83L1778.92 1038.5C1778.92 1035.97 1780.97 1033.92 1783.5 1033.92 1786.03 1033.92 1788.08 1035.97 1788.08 1038.5ZM1788.08 1075.17 1788.08 1089.33C1788.08 1091.86 1786.03 1093.92 1783.5 1093.92 1780.97 1093.92 1778.92 1091.86 1778.92 1089.33L1778.92 1075.17C1778.92 1072.64 1780.97 1070.58 1783.5 1070.58 1786.03 1070.58 1788.08 1072.64 1788.08 1075.17ZM1783.5 1089.33 1797.25 1080.17 1783.5 1107.67 1769.75 1080.17Z" fill="#FDB800" fill-rule="nonzero" fill-opacity="1"/><path d="M0.205038-4.57874 7.88667-4.23476 15.9512-3.18203 23.9636-1.44691 28.3904-0.121032 25.7333 8.65208 22.0061 7.50832 14.7453 5.90496 7.47659 4.92273-0.205038 4.57874ZM37.3529 3.03303 39.7587 3.96182 47.5094 7.58153 55.1429 11.7766 62.3746 16.3497 57.4675 24.0923 50.7191 19.8051 43.6197 15.882 36.4573 12.5134 34.0515 11.5846ZM70.2465 21.9773 77.2089 27.5655 84.2432 33.8172 91.0954 40.5252 91.2592 40.6941 84.6793 47.072 78.1494 40.6651 71.4712 34.7143 64.5087 29.1262ZM97.5062 47.4025 97.7526 47.6671 104.201 55.221 110.428 63.1651 114.925 69.4014 107.486 74.7586 103.212 68.8173 97.2272 61.1698 91.0442 53.9141 90.7978 53.6495ZM120.113 77.2753 127.595 89.0497 134.165 101.288 126.084 105.616 119.858 93.966 112.376 82.1917ZM138.531 109.718 146.603 127.82 149.343 135.345 140.725 138.469 138.231 131.553 130.159 113.452ZM152.467 143.963 154.15 148.605 157.407 159.351 160.257 170.176 160.418 170.883 151.472 172.884 151.391 172.507 148.633 162.005 145.532 151.729 143.849 147.087ZM162.419 179.829 162.711 181.136 164.754 192.208 166.371 203.372 166.805 207.502 157.688 208.453 157.299 204.683 155.739 193.869 153.765 183.136 153.473 181.829ZM167.69 216.812 168.265 225.891 168.511 237.203 168.36 244.675 159.195 244.484 159.346 237.398 159.117 226.47 158.542 217.391ZM167.945 254.017 167.589 259.8 166.453 271.035 164.958 281.702 155.881 280.427 157.333 270.111 158.44 259.237 158.796 253.454ZM163.334 290.899 162.909 293.273 160.529 304.232 157.766 315.058 156.866 318.128 148.072 315.542 148.885 312.788 151.572 302.285 153.885 291.657 154.311 289.283ZM154.144 327.132 147.341 346.437 144.427 353.188 136.017 349.543 138.695 343.391 145.498 324.086ZM140.782 361.599 138.723 366.348 128.916 385.209 128.019 386.685 120.221 381.867 120.785 380.976 130.313 362.702 132.371 357.953ZM123.202 394.483 118.033 402.853 112.171 411.238 107.402 417.509 100.109 411.956 104.662 405.981 110.234 398.036 115.403 389.666ZM101.501 424.769 99.8707 426.735 93.4114 433.878 86.7635 440.587 81.9734 444.98 75.7836 438.218 80.2552 434.132 86.6154 427.726 92.8141 420.885 94.4446 418.918ZM74.8207 451.076 72.9527 452.618 65.8146 457.895 58.5377 462.649 51.3145 466.754 46.794 458.779 53.5311 454.97 60.371 450.52 67.1163 445.55 68.9842 444.007ZM42.4691 470.96 35.9967 473.53C35.7668 473.622 35.5293 473.694 35.2877 473.747L28.1709 475.31 26.2054 466.356 33.3221 464.794 32.6131 465.011 39.0856 462.44ZM33.9697 483.642 4.58333 474.601 29.4485 456.517Z" fill="#FDB800" fill-rule="nonzero" fill-opacity="1" transform="matrix(-1 1.22465e-16 1.22465e-16 1 -119.917 1138.5)"/><path d="M0.356214-4.56947 7.83704-3.9863C8.06436-3.96858 8.2904-3.93386 8.51256-3.88253L15.9788-2.15758 24.014 0.854335 28.3929 3.12483 24.1176 11.2335 20.754 9.42171 13.9153 6.77382 6.44909 5.04887 7.12461 5.15264-0.356214 4.56947ZM36.6374 8.12427 39.6684 10.1613 47.2706 16.3376 54.7201 23.4629 57.9895 27.0535 51.1975 33.2095 48.3745 30.0781 41.4762 23.4406 34.5553 17.7694 31.5243 15.7324ZM64.1797 34.1847 69.1514 40.3942 76.1237 50.1246 80.4896 56.8781 72.7881 61.8496 68.6696 55.4596 61.9957 46.1235 57.024 39.914ZM85.3929 64.8531 89.5439 71.935 95.972 83.9445 98.6196 89.3414 90.3879 93.3747 87.8892 88.2683 81.6357 76.5704 77.4847 69.4885ZM102.686 97.7237 108.207 109.996 113.631 123.1 105.161 126.605 99.8478 113.757 94.3265 101.485ZM116.965 131.779 119.531 138.52 124.818 153.621 126.206 157.933 117.479 160.738 116.166 156.649 110.964 141.781 108.398 135.04ZM129.01 166.66 129.837 169.233 134.574 185.32 136.716 193.287 127.863 195.665 125.781 187.908 121.11 172.038 120.283 169.465ZM139.114 202.244 143.146 218.775 145.318 229.191 136.344 231.06 134.241 220.947 130.208 204.417ZM147.187 238.165 150.411 253.646 152.44 265.31 143.408 266.88 141.437 255.515 138.213 240.034ZM153.965 274.452 156.282 289.795 157.823 301.781 148.731 302.948 147.218 291.164 144.901 275.821ZM158.943 310.981 160.615 326.78 161.586 338.456 152.45 339.215 151.499 327.744 149.827 311.946ZM162.304 347.7 163.302 364.36 163.7 375.27 154.54 375.604 154.152 364.908 153.154 348.248ZM164.009 384.542 164.226 402.244 164.109 412.151 154.943 412.042 155.06 402.357 154.843 384.655ZM163.995 421.424 163.334 440.129 162.819 449.002 153.667 448.469 154.173 439.805 154.834 421.1ZM162.286 458.153 162.238 458.974 160.729 477.707 159.903 485.752 150.784 484.814 151.592 476.97 153.087 458.442 153.135 457.621ZM158.966 494.87 158.82 496.291 156.525 514.689 155.316 522.373 146.261 520.946 147.429 513.554 149.701 495.353 149.847 493.933ZM153.889 531.428 150.845 550.734 149.233 558.726 140.248 556.909 141.79 549.306 144.834 530ZM147.415 567.711 143.787 585.649 141.634 594.748 132.714 592.635 134.803 583.831 138.431 565.894ZM139.472 603.763 135.458 619.144 132.24 630.403 123.427 627.883 126.589 616.829 130.602 601.448ZM129.593 639.294 125.991 650.831 120.995 665.534 112.316 662.583 117.241 648.1 120.843 636.562ZM117.786 674.25 115.486 680.471 109.877 694.433 107.442 700.01 99.0424 696.34 101.371 691.015 106.888 677.292 109.188 671.071ZM103.69 708.535 98.0132 720.464 91.783 732.461 91.2381 733.425 83.272 728.89 83.6487 728.235 89.736 716.525 95.4129 704.596ZM86.7029 741.391 85.3698 743.732 78.7847 754.243 72.0376 763.958 71.2866 764.934 64.0506 759.307 64.5109 758.726 71.0183 749.374 77.4037 739.197 78.7367 736.856ZM65.6592 772.17 65.1372 772.842 58.0909 780.859 50.9034 787.973 45.6824 792.377 39.7869 785.358 44.4622 781.45 51.2105 774.802 57.9013 767.214 58.4233 766.543ZM37.96 798.056 36.1135 799.334C35.8113 799.543 35.4853 799.715 35.142 799.846L28.2267 802.489 24.9539 793.926 31.8692 791.283 30.8977 791.795 32.7442 790.518ZM34.8274 810.133 4.58333 804.601 27.156 783.725Z" fill="#FDB800" fill-rule="nonzero" fill-opacity="1" transform="matrix(-1 1.22465e-16 1.22465e-16 1 -119.917 1225.5)"/><path d="M0.117047-4.58184 10.5401-4.31557 21.1717-3.5164 27.9829-2.6725 26.8487 6.42372 20.4797 5.62411 10.306 4.8481-0.117047 4.58184ZM37.2553-1.25694 42.2688-0.390696 52.6937 1.9003 63.0091 4.65322 64.607 5.15097 61.8582 13.8958 60.6418 13.5089 50.7221 10.8524 40.7081 8.64213 35.6946 7.77589ZM73.5335 7.96853 83.2321 11.4751 93.0997 15.5095 99.3788 18.3803 95.5627 26.7149 89.6275 23.9931 80.1153 20.0956 70.4167 16.5891ZM107.816 22.6127 121.408 29.858 131.912 36.5659 126.969 44.2857 117.096 37.9472 103.504 30.7019ZM139.905 41.7582 155.693 53.7515 161.692 59.1165 155.569 65.9377 150.148 61.051 134.36 49.0577ZM168.514 65.2401 170.944 67.4217 178.095 74.7001 184.786 82.1421 187.783 85.7906 180.694 91.6022 177.967 88.2679 171.55 81.1185 164.82 74.2428 162.39 72.0613ZM193.58 93.1633 196.918 97.6481 202.318 105.681 207.245 113.879 208.826 116.848 200.728 121.141 199.385 118.596 194.708 110.79 189.565 103.122 186.227 98.637ZM213.08 125.251 215.596 130.71 218.976 139.311 221.796 148.014 222.773 151.832 213.887 154.083 213.073 150.831 210.442 142.656 207.271 134.547 204.755 129.088ZM224.825 161.077 225.663 165.661 226.663 174.571 227.011 183.512 227.22 189.091 218.059 189.434 217.85 183.855 217.553 175.582 216.646 167.31 215.807 162.726ZM227.985 197.884 228.262 200.376 229.78 208.614 231.869 216.819 234.098 223.691 225.375 226.508 222.983 219.071 220.763 210.263 219.151 201.387 218.875 198.895ZM237.272 231.989 237.694 233.067 241.394 241.075 245.595 248.983 249.615 255.669 241.755 260.386 237.496 253.277 233.069 244.912 229.16 236.412 228.737 235.335ZM254.545 263.118 255.424 264.428 261.014 271.928 267.029 279.257 271.338 284.047 264.519 290.173 259.94 285.069 253.661 277.402 247.814 269.538 246.934 268.228ZM277.519 290.54 280.251 293.326 295.002 306.556 297.493 308.429 291.948 315.728 288.878 313.377 273.707 299.745 270.974 296.958ZM304.793 313.974 310.977 318.671 327.295 329.102 322.352 336.822 305.432 325.971 299.248 321.273ZM335.031 333.294 346.147 339.219 355.405 343.449 359.35 345.059 355.878 353.543 351.589 351.784 341.835 347.308 330.719 341.383ZM367.703 348.341 374.598 350.834 384.41 353.914 393.58 356.361 391.213 365.217 381.661 362.659 371.482 359.455 364.586 356.962ZM402.326 358.318 404.358 358.766 414.454 360.505 422.426 361.239 421.57 370.366 412.893 369.538 402.387 367.718 400.355 367.27ZM418.364 351.772 444.861 367.368 416.486 379.207Z" fill="#FDB800" fill-rule="nonzero" fill-opacity="1" transform="matrix(1 0 0 -1 2238.5 1612.87)"/></g></svg>