<svg width="2654" height="2191" xmlns="http://www.w3.org/2000/svg" xmlns:xlink="http://www.w3.org/1999/xlink" xml:space="preserve" overflow="hidden"><defs><clipPath id="clip0"><rect x="128" y="91" width="2654" height="2191"/></clipPath></defs><g clip-path="url(#clip0)" transform="translate(-128 -91)"><rect x="132" y="571.155" width="951.845" height="31.845" fill="#C2C2C2" fill-opacity="1"/><path d="M1083.85 571.155 1460 195 1460 226.845 1083.85 603Z" fill="#9C9C9C" fill-rule="evenodd" fill-opacity="1"/><path d="M132 571.155 508.155 195 1460 195 1083.85 571.155Z" fill="#CECECE" fill-rule="evenodd" fill-opacity="1"/><rect x="353" y="479" width="8.99994" height="32.0003" fill="#000000" fill-opacity="1"/><rect x="348" y="430" width="19.0003" height="62.9999" fill="#3B67BE" fill-opacity="1"/><rect x="452" y="440" width="8.99994" height="32" fill="#000000" fill-opacity="1"/><rect x="447" y="391" width="19.0003" height="63.0003" fill="#BB0000" fill-opacity="1"/><rect x="541" y="398" width="8.99994" height="32" fill="#000000" fill-opacity="1"/><rect x="536" y="349" width="19.0002" height="63.0003" fill="#BB0000" fill-opacity="1"/><rect x="614" y="446" width="8.99994" height="32.0003" fill="#000000" fill-opacity="1"/><rect x="609" y="397" width="18.9999" height="62.9999" fill="#3B67BE" fill-opacity="1"/><rect x="702" y="465" width="8.99994" height="32" fill="#000000" fill-opacity="1"/><rect x="697" y="416" width="18.9999" height="62.9999" fill="#3B67BE" fill-opacity="1"/><rect x="778" y="343" width="8.00024" height="32" fill="#000000" fill-opacity="1"/><rect x="772" y="294" width="19.9999" height="63.0003" fill="#BB0000" fill-opacity="1"/><rect x="846" y="470" width="8.99994" height="32" fill="#000000" fill-opacity="1"/><rect x="841" y="421" width="18.9999" height="62.9999" fill="#BB0000" fill-opacity="1"/><rect x="922" y="377" width="7.99988" height="32" fill="#000000" fill-opacity="1"/><rect x="916" y="328" width="19.9999" height="62.9999" fill="#BB0000" fill-opacity="1"/><rect x="1001" y="479" width="8.99994" height="32.0003" fill="#000000" fill-opacity="1"/><rect x="996" y="430" width="19.0002" height="62.9999" fill="#3B67BE" fill-opacity="1"/><rect x="1074" y="424" width="9.00024" height="31.0003" fill="#000000" fill-opacity="1"/><rect x="1069" y="375" width="18.9999" height="62.9999" fill="#BB0000" fill-opacity="1"/><path d="M398.693 95.5407 415.213 102.134 387.656 171.175 371.136 164.581Z" fill="#3B67BE" fill-rule="nonzero" fill-opacity="1"/><rect x="423" y="391" width="16.9998" height="62.0002" fill="#BB0000" fill-opacity="1"/><path d="M383.452 157.5C370.338 193.7 353.499 238.027 368.499 273.317 386.095 314.705 431.5 345.761 431.5 391.5" stroke="#FCB801" stroke-width="19.4792" stroke-linecap="butt" stroke-linejoin="round" stroke-miterlimit="10" stroke-opacity="1" fill="none" fill-rule="evenodd"/><path d="M612.662 99.1852 629.182 105.779 601.389 175.408 584.87 168.815Z" fill="#BB0000" fill-rule="nonzero" fill-opacity="1"/><rect x="637" y="397" width="17.0002" height="65" fill="#3B67BE" fill-opacity="1"/><path d="M597.451 161.5C584.338 198.009 567.499 242.716 582.499 278.306 600.095 320.049 645.5 351.37 645.5 397.5" stroke="#FCB801" stroke-width="19.4792" stroke-linecap="butt" stroke-linejoin="round" stroke-miterlimit="10" stroke-opacity="1" fill="none" fill-rule="evenodd"/><rect x="0" y="0" width="17.7869" height="76.28" fill="#BB0000" fill-opacity="1" transform="matrix(-0.928751 0.370703 0.370703 0.928751 1060.65 124.846)"/><rect x="0" y="0" width="18.0002" height="63.9999" fill="#3B67BE" fill-opacity="1" transform="matrix(-1 0 0 1 1037 428)"/><path d="M21.2551 0C7.95131 37.1278-9.13149 82.5922 6.08567 118.786 23.9374 161.236 70.0001 193.089 70.0001 240" stroke="#FCB801" stroke-width="19.4792" stroke-linecap="butt" stroke-linejoin="round" stroke-miterlimit="10" stroke-opacity="1" fill="none" fill-rule="evenodd" transform="matrix(-1 0 0 1 1098.5 188.5)"/><rect x="1452" y="569.234" width="949.766" height="31.7658" fill="#C2C2C2" fill-opacity="1"/><path d="M2401.77 569.234 2777 194 2777 225.766 2401.77 601Z" fill="#9C9C9C" fill-rule="evenodd" fill-opacity="1"/><path d="M1452 569.234 1827.23 194 2777 194 2401.77 569.234Z" fill="#CECECE" fill-rule="evenodd" fill-opacity="1"/><rect x="1672" y="477" width="8.99988" height="32" fill="#000000" fill-opacity="1"/><rect x="1667" y="428" width="19.0002" height="62.9999" fill="#3B67BE" fill-opacity="1"/><rect x="1771" y="439" width="8.99988" height="30.9999" fill="#000000" fill-opacity="1"/><rect x="1766" y="390" width="19.0002" height="62.9999" fill="#BB0000" fill-opacity="1"/><rect x="1860" y="397" width="7.99988" height="30.9999" fill="#000000" fill-opacity="1"/><rect x="1854" y="348" width="20.0002" height="63.0003" fill="#BB0000" fill-opacity="1"/><rect x="1931" y="445" width="8.00024" height="30.9999" fill="#000000" fill-opacity="1"/><rect x="1925" y="396" width="19.9999" height="62.9999" fill="#3B67BE" fill-opacity="1"/><rect x="2020" y="464" width="9.00024" height="30.9999" fill="#000000" fill-opacity="1"/><rect x="2015" y="415" width="18.9999" height="62.0002" fill="#3B67BE" fill-opacity="1"/><rect x="2096" y="342" width="9.00024" height="30.9999" fill="#000000" fill-opacity="1"/><rect x="2091" y="293" width="19" height="63.0003" fill="#BB0000" fill-opacity="1"/><rect x="2164" y="469" width="9" height="31.0003" fill="#000000" fill-opacity="1"/><rect x="2159" y="420" width="19" height="62.9999" fill="#BB0000" fill-opacity="1"/><rect x="2240" y="376" width="8.00024" height="32" fill="#000000" fill-opacity="1"/><rect x="2234" y="327" width="20" height="63.0003" fill="#BB0000" fill-opacity="1"/><rect x="2319" y="477" width="8" height="32" fill="#000000" fill-opacity="1"/><rect x="2313" y="428" width="20" height="62.9999" fill="#3B67BE" fill-opacity="1"/><rect x="2392" y="422" width="8" height="32" fill="#000000" fill-opacity="1"/><rect x="2387" y="373" width="19" height="62.9999" fill="#BB0000" fill-opacity="1"/><path d="M1933.18 98.722 1949.66 106.032 1919.74 173.501 1903.26 166.192Z" fill="#BB0000" fill-rule="nonzero" fill-opacity="1"/><rect x="1955" y="396" width="18.0002" height="65" fill="#3B67BE" fill-opacity="1"/><path d="M1916.45 160.5C1903.34 197.009 1886.5 241.716 1901.5 277.306 1919.1 319.049 1964.5 350.37 1964.5 396.5" stroke="#FCB801" stroke-width="19.4792" stroke-linecap="butt" stroke-linejoin="round" stroke-miterlimit="10" stroke-opacity="1" fill="none" fill-rule="evenodd"/><path d="M1904.11 96.8384 1920.59 104.124 1890.76 171.623 1874.27 164.337Z" fill="#BB0000" fill-rule="nonzero" fill-opacity="1"/><path d="M1885.76 160.5C1872.45 197.009 1855.37 241.716 1870.59 277.306 1888.44 319.049 1934.5 350.37 1934.5 396.5" stroke="#FCB801" stroke-width="19.4792" stroke-linecap="butt" stroke-linejoin="round" stroke-miterlimit="10" stroke-opacity="1" fill="none" fill-rule="evenodd"/><rect x="131" y="1126.23" width="946.767" height="31.7662" fill="#C2C2C2" fill-opacity="1"/><path d="M1077.77 1126.23 1453 751 1453 782.766 1077.77 1158Z" fill="#9C9C9C" fill-rule="evenodd" fill-opacity="1"/><path d="M131 1126.23 506.233 751 1453 751 1077.77 1126.23Z" fill="#CECECE" fill-rule="evenodd" fill-opacity="1"/><rect x="351" y="1035" width="7.99991" height="30.9999" fill="#000000" fill-opacity="1"/><rect x="345" y="986" width="19.9999" height="62.0002" fill="#3B67BE" fill-opacity="1"/><rect x="450" y="996" width="7.99991" height="32.0003" fill="#000000" fill-opacity="1"/><rect x="444" y="947" width="19.9999" height="62.9999" fill="#BB0000" fill-opacity="1"/><rect x="538" y="954" width="8.99994" height="31.9999" fill="#000000" fill-opacity="1"/><rect x="533" y="905" width="18.9999" height="62.9999" fill="#BB0000" fill-opacity="1"/><rect x="609" y="1002" width="7.99988" height="30.9999" fill="#000000" fill-opacity="1"/><rect x="604" y="953" width="18.9999" height="63.0002" fill="#3B67BE" fill-opacity="1"/><rect x="698" y="1021" width="8.99994" height="30.9999" fill="#000000" fill-opacity="1"/><rect x="693" y="972" width="18.9999" height="61.9999" fill="#3B67BE" fill-opacity="1"/><rect x="774" y="899" width="7.99988" height="31.9999" fill="#000000" fill-opacity="1"/><rect x="769" y="850" width="18.9999" height="62.9999" fill="#BB0000" fill-opacity="1"/><rect x="842" y="1026" width="8.00024" height="30.9999" fill="#000000" fill-opacity="1"/><rect x="837" y="977" width="18.9999" height="62.9999" fill="#BB0000" fill-opacity="1"/><rect x="917" y="933" width="8.99994" height="31.9999" fill="#000000" fill-opacity="1"/><rect x="912" y="884" width="18.9999" height="62.9999" fill="#BB0000" fill-opacity="1"/><rect x="996" y="1035" width="9.00031" height="30.9999" fill="#000000" fill-opacity="1"/><rect x="991" y="986" width="18.9999" height="62.0002" fill="#3B67BE" fill-opacity="1"/><rect x="1069" y="979" width="8.99988" height="31.9999" fill="#000000" fill-opacity="1"/><rect x="1064" y="931" width="19.0002" height="62.0002" fill="#BB0000" fill-opacity="1"/><path d="M570.261 652.112 586.995 658.678 560.075 727.28 543.342 720.714Z" fill="#BB0000" fill-rule="nonzero" fill-opacity="1"/><path d="M553.582 722.15C542.181 759.126 527.44 804.441 544.12 839.173 563.687 879.908 610.582 908.952 612.752 954.888" stroke="#FCB801" stroke-width="19.4792" stroke-linecap="butt" stroke-linejoin="round" stroke-miterlimit="10" stroke-opacity="1" fill="none" fill-rule="evenodd"/><rect x="1452" y="1132.15" width="953.846" height="31.845" fill="#C2C2C2" fill-opacity="1"/><path d="M2405.85 1132.15 2782 756 2782 787.845 2405.85 1164Z" fill="#9C9C9C" fill-rule="evenodd" fill-opacity="1"/><path d="M1452 1132.15 1828.15 756 2782 756 2405.85 1132.15Z" fill="#CECECE" fill-rule="evenodd" fill-opacity="1"/><rect x="1682" y="1013" width="8.99988" height="31.9999" fill="#000000" fill-opacity="1"/><rect x="1677" y="964" width="18.9999" height="63.0002" fill="#3B67BE" fill-opacity="1"/><rect x="1782" y="974" width="7.99988" height="32.0003" fill="#000000" fill-opacity="1"/><rect x="1776" y="925" width="19.9999" height="62.9999" fill="#BB0000" fill-opacity="1"/><rect x="1871" y="932" width="7.99988" height="31.9999" fill="#000000" fill-opacity="1"/><rect x="1865" y="883" width="20.0002" height="62.9999" fill="#BB0000" fill-opacity="1"/><rect x="2033" y="999" width="7.99988" height="31.9999" fill="#000000" fill-opacity="1"/><rect x="2027" y="950" width="19.9999" height="62.9999" fill="#3B67BE" fill-opacity="1"/><rect x="2109" y="877" width="8.00024" height="30.9999" fill="#000000" fill-opacity="1"/><rect x="2103" y="827" width="20" height="62.9999" fill="#BB0000" fill-opacity="1"/><rect x="2177" y="1004" width="9" height="32" fill="#000000" fill-opacity="1"/><rect x="2172" y="955" width="19" height="62.9999" fill="#BB0000" fill-opacity="1"/><rect x="2333" y="1013" width="9" height="31.9999" fill="#000000" fill-opacity="1"/><rect x="2327" y="964" width="20.0002" height="63.0002" fill="#3B67BE" fill-opacity="1"/><rect x="2406" y="958" width="9" height="30.9999" fill="#000000" fill-opacity="1"/><rect x="2401" y="908" width="19" height="64.0003" fill="#BB0000" fill-opacity="1"/><path d="M1944.5 933.5C1970.63 870.656 2010.44 801.509 2070.7 777.361 2138.8 750.071 2263.58 781.136 2275.5 857.796" stroke="#FCB801" stroke-width="19.4792" stroke-linecap="butt" stroke-linejoin="round" stroke-miterlimit="10" stroke-opacity="1" fill="none" fill-rule="evenodd"/><rect x="1942" y="980" width="9.00024" height="31.9999" fill="#000000" fill-opacity="1"/><rect x="1937" y="928" width="18.9999" height="66" fill="#3B67BE" fill-opacity="1"/><rect x="2266.5" y="847.5" width="14" height="60.0002" stroke="#BB0100" stroke-width="3.4375" stroke-linecap="square" stroke-linejoin="miter" stroke-miterlimit="8" stroke-opacity="1" fill="#BB0000" fill-opacity="1"/><path d="M2246.5 849.936C2200.77 808.273 2135.28 787.487 2079.46 802.545 2030.76 815.681 1999.81 881.35 1977.5 935.5" stroke="#FCB801" stroke-width="19.4792" stroke-linecap="butt" stroke-linejoin="round" stroke-miterlimit="10" stroke-opacity="1" fill="none" fill-rule="evenodd"/><rect x="2237" y="893" width="8" height="30.9999" fill="#000000" fill-opacity="1"/><rect x="2231" y="844" width="20" height="63.0002" fill="#BB0000" fill-opacity="1"/><rect x="1969.5" y="927.5" width="19.0002" height="67.0001" stroke="#3A67BE" stroke-width="0" stroke-linecap="square" stroke-linejoin="miter" stroke-miterlimit="8" stroke-opacity="1" fill="#3B67BE" fill-opacity="1"/><rect x="132" y="1689.08" width="955.923" height="31.9227" fill="#C2C2C2" fill-opacity="1"/><path d="M1087.92 1689.08 1465 1312 1465 1343.92 1087.92 1721Z" fill="#9C9C9C" fill-rule="evenodd" fill-opacity="1"/><path d="M132 1689.08 509.077 1312 1465 1312 1087.92 1689.08Z" fill="#CECECE" fill-rule="evenodd" fill-opacity="1"/><rect x="354" y="1597" width="7.99991" height="32" fill="#000000" fill-opacity="1"/><rect x="348" y="1548" width="20.0003" height="63.0002" fill="#3B67BE" fill-opacity="1"/><rect x="453" y="1559" width="8.99994" height="30.9999" fill="#000000" fill-opacity="1"/><rect x="448" y="1509" width="19.0003" height="63.9999" fill="#BB0000" fill-opacity="1"/><rect x="542" y="1516" width="8.99994" height="32" fill="#000000" fill-opacity="1"/><rect x="537" y="1467" width="18.9999" height="62.9999" fill="#BB0000" fill-opacity="1"/><rect x="704" y="1583" width="8.99994" height="32" fill="#000000" fill-opacity="1"/><rect x="699" y="1534" width="19.0002" height="62.9999" fill="#3B67BE" fill-opacity="1"/><rect x="780" y="1461" width="8.99994" height="32" fill="#000000" fill-opacity="1"/><rect x="775" y="1411" width="18.9999" height="63.9999" fill="#BB0000" fill-opacity="1"/><rect x="848" y="1589" width="8.99994" height="30.9999" fill="#000000" fill-opacity="1"/><rect x="843" y="1539" width="20.0003" height="62.9999" fill="#BB0000" fill-opacity="1"/><rect x="1078" y="1542" width="7.99988" height="32" fill="#000000" fill-opacity="1"/><rect x="1072" y="1493" width="19.9999" height="63.0002" fill="#BB0000" fill-opacity="1"/><rect x="616" y="1564" width="8.99994" height="32" fill="#000000" fill-opacity="1"/><rect x="611" y="1515" width="19.0002" height="63.0002" fill="#3B67BE" fill-opacity="1"/><rect x="1004" y="1597" width="8.99994" height="32" fill="#000000" fill-opacity="1"/><rect x="999" y="1548" width="18.9999" height="63.0002" fill="#3B67BE" fill-opacity="1"/><path d="M621.5 1517.5C621.5 1470 576.174 1413.1 528.728 1409.15 499.372 1406.7 462.128 1413.45 445.006 1437.37 430.123 1458.15 426.34 1488.21 432.564 1512.99" stroke="#FCB801" stroke-width="19.4792" stroke-linecap="butt" stroke-linejoin="round" stroke-miterlimit="10" stroke-opacity="1" fill="none" fill-rule="evenodd"/><rect x="423" y="1509" width="19.9999" height="63.9999" fill="#BB0000" fill-opacity="1"/><path d="M928.5 1452.64C932.006 1431.63 944.295 1387.15 962.347 1398.45 1007.28 1426.56 980.398 1503.47 980.398 1556.5" stroke="#FCB801" stroke-width="19.4792" stroke-linecap="butt" stroke-linejoin="round" stroke-miterlimit="10" stroke-opacity="1" fill="none" fill-rule="evenodd"/><rect x="924" y="1495" width="8.99994" height="32" fill="#000000" fill-opacity="1"/><rect x="919" y="1446" width="20.0003" height="62.9999" fill="#BB0000" fill-opacity="1"/><rect x="970" y="1549" width="18.9999" height="62.9999" fill="#3B67BE" fill-opacity="1"/><rect x="1452" y="1690.23" width="950.767" height="31.7666" fill="#C2C2C2" fill-opacity="1"/><path d="M2402.77 1690.23 2778 1315 2778 1346.77 2402.77 1722Z" fill="#9C9C9C" fill-rule="evenodd" fill-opacity="1"/><path d="M1452 1690.23 1827.23 1315 2778 1315 2402.77 1690.23Z" fill="#CECECE" fill-rule="evenodd" fill-opacity="1"/><path d="M1677.5 1549.5C1677.5 1472.14 1637.08 1393.55 1655.5 1318.5" stroke="#FCB801" stroke-width="19.4792" stroke-linecap="butt" stroke-linejoin="round" stroke-miterlimit="10" stroke-opacity="1" fill="none" fill-rule="evenodd"/><path d="M1776.5 1510.5C1761.11 1441.05 1738.02 1368.27 1751.9 1298.5" stroke="#FCB801" stroke-width="19.4792" stroke-linecap="butt" stroke-linejoin="round" stroke-miterlimit="10" stroke-opacity="1" fill="none" fill-rule="evenodd"/><path d="M1865.5 1469.5C1835.98 1410.86 1869.36 1335.71 1848.5 1273.5" stroke="#FCB801" stroke-width="19.4792" stroke-linecap="butt" stroke-linejoin="round" stroke-miterlimit="10" stroke-opacity="1" fill="none" fill-rule="evenodd"/><path d="M1943.35 1519.5C1932.71 1482.48 1923.88 1443.39 1927.55 1405.06 1930.12 1378.21 1947.02 1354.29 1951.24 1327.65 1955.64 1299.93 1946.64 1270.72 1953.5 1243.5" stroke="#FCB801" stroke-width="19.4792" stroke-linecap="butt" stroke-linejoin="round" stroke-miterlimit="10" stroke-opacity="1" fill="none" fill-rule="evenodd"/><path d="M2025.45 1538.5C2025.45 1489.1 2029.66 1438.42 2017.5 1390.5" stroke="#FCB801" stroke-width="19.4792" stroke-linecap="butt" stroke-linejoin="round" stroke-miterlimit="10" stroke-opacity="1" fill="none" fill-rule="evenodd"/><path d="M2102.92 1412.5C2102.92 1389.93 2094.06 1367.61 2095.99 1345.11 2100.6 1291.34 2127.69 1237.41 2116.78 1184.5" stroke="#FCB801" stroke-width="19.4792" stroke-linecap="butt" stroke-linejoin="round" stroke-miterlimit="10" stroke-opacity="1" fill="none" fill-rule="evenodd"/><path d="M2171.35 1542.5C2146.39 1483.59 2182.5 1414.61 2182.5 1350.5" stroke="#FCB801" stroke-width="19.4792" stroke-linecap="butt" stroke-linejoin="round" stroke-miterlimit="10" stroke-opacity="1" fill="none" fill-rule="evenodd"/><path d="M2245.5 1447.5C2245.5 1377.9 2310.38 1323.53 2332.5 1257.5" stroke="#FCB801" stroke-width="19.4792" stroke-linecap="butt" stroke-linejoin="round" stroke-miterlimit="10" stroke-opacity="1" fill="none" fill-rule="evenodd"/><path d="M2325.77 1551.5C2325.77 1528.51 2330.82 1503.97 2322.45 1482.62 2316.55 1467.61 2302.5 1454.75 2302.5 1438.58 2302.5 1406.08 2327.11 1378.37 2343.5 1350.5" stroke="#FCB801" stroke-width="19.4792" stroke-linecap="butt" stroke-linejoin="round" stroke-miterlimit="10" stroke-opacity="1" fill="none" fill-rule="evenodd"/><path d="M2398.98 1494.5C2395.02 1459.2 2399.09 1420.62 2415.88 1389.26 2434.97 1353.62 2476.84 1328.32 2483.5 1288.5" stroke="#FCB801" stroke-width="19.4792" stroke-linecap="butt" stroke-linejoin="round" stroke-miterlimit="10" stroke-opacity="1" fill="none" fill-rule="evenodd"/><rect x="1672" y="1599" width="8.99988" height="30.9999" fill="#000000" fill-opacity="1"/><rect x="1667" y="1550" width="19.0002" height="62.9999" fill="#3B67BE" fill-opacity="1"/><rect x="1772" y="1560" width="7.99988" height="32" fill="#000000" fill-opacity="1"/><rect x="1766" y="1511" width="20.0002" height="62.9999" fill="#BB0000" fill-opacity="1"/><rect x="1860" y="1518" width="8.99988" height="32" fill="#000000" fill-opacity="1"/><rect x="1855" y="1469" width="19.0002" height="63.0002" fill="#BB0000" fill-opacity="1"/><rect x="1937" y="1567" width="7.99988" height="32" fill="#000000" fill-opacity="1"/><rect x="1932" y="1518" width="19.0002" height="62.9999" fill="#3B67BE" fill-opacity="1"/><rect x="2021" y="1585" width="8.99988" height="30.9999" fill="#000000" fill-opacity="1"/><rect x="2016" y="1536" width="18.9999" height="63.0002" fill="#3B67BE" fill-opacity="1"/><rect x="2097" y="1463" width="8.00024" height="30.9999" fill="#000000" fill-opacity="1"/><rect x="2091" y="1414" width="20" height="63.0002" fill="#BB0000" fill-opacity="1"/><rect x="2165" y="1590" width="9" height="32.0004" fill="#000000" fill-opacity="1"/><rect x="2160" y="1541" width="19" height="62.9999" fill="#BB0000" fill-opacity="1"/><rect x="2241" y="1497" width="8.00024" height="32" fill="#000000" fill-opacity="1"/><rect x="2235" y="1448" width="20" height="63.0002" fill="#BB0000" fill-opacity="1"/><rect x="2320" y="1599" width="9" height="30.9999" fill="#000000" fill-opacity="1"/><rect x="2315" y="1550" width="19" height="62.9999" fill="#3B67BE" fill-opacity="1"/><rect x="2393" y="1544" width="9.00024" height="30.9999" fill="#000000" fill-opacity="1"/><rect x="2388" y="1494" width="19" height="62.9999" fill="#BB0000" fill-opacity="1"/><path d="M1759.47 1236.72 1778.09 1242.17 1760.42 1302.54 1741.79 1297.08Z" fill="#3B67BE" fill-rule="nonzero" fill-opacity="1"/><path d="M1654.1 1254.73 1673.22 1257.56 1663.99 1319.87 1644.86 1317.04Z" fill="#BB0000" fill-rule="nonzero" fill-opacity="1"/><path d="M1832.08 1215.93 1851.42 1213.66 1858.74 1276.08 1839.4 1278.35Z" fill="#3B67BE" fill-rule="nonzero" fill-opacity="1"/><path d="M1957.11 1180.2 1975.95 1184.66 1961.42 1246 1942.58 1241.54Z" fill="#BB0000" fill-rule="nonzero" fill-opacity="1"/><path d="M2099.69 1125.97 2119.02 1123.71 2126.34 1186.13 2107 1188.4Z" fill="#3B67BE" fill-rule="nonzero" fill-opacity="1"/><path d="M2178.99 1290.91 2198.25 1292.97 2191.57 1355.66 2172.31 1353.6Z" fill="#3B67BE" fill-rule="nonzero" fill-opacity="1"/><path d="M1997.15 1334.39 2016.2 1331.06 2027.06 1393.18 2008 1396.51Z" fill="#BB0000" fill-rule="nonzero" fill-opacity="1"/><path d="M2345.04 1198.6 2363.1 1205.82 2339.73 1264.25 2321.67 1257.02Z" fill="#3B67BE" fill-rule="nonzero" fill-opacity="1"/><path d="M2362.76 1295.48 2379.76 1304.76 2349.57 1360.07 2332.57 1350.79Z" fill="#BB0000" fill-rule="nonzero" fill-opacity="1"/><path d="M2483.58 1231.33 2502.71 1234.87 2491.25 1296.73 2472.13 1293.19Z" fill="#3B67BE" fill-rule="nonzero" fill-opacity="1"/><text fill="#000000" fill-opacity="1" font-family="Times New Roman,Times New Roman_MSFontService,sans-serif" font-style="normal" font-variant="normal" font-weight="400" font-stretch="normal" font-size="92" text-anchor="start" direction="ltr" writing-mode="lr-tb" unicode-bidi="normal" text-decoration="none" transform="matrix(1 0 0 1 250.853 404)">a</text><text fill="#000000" fill-opacity="1" font-family="Times New Roman,Times New Roman_MSFontService,sans-serif" font-style="normal" font-variant="normal" font-weight="400" font-stretch="normal" font-size="92" text-anchor="start" direction="ltr" writing-mode="lr-tb" unicode-bidi="normal" text-decoration="none" transform="matrix(1 0 0 1 1567.64 403)">b</text><text fill="#000000" fill-opacity="1" font-family="Times New Roman,Times New Roman_MSFontService,sans-serif" font-style="normal" font-variant="normal" font-weight="400" font-stretch="normal" font-size="92" text-anchor="start" direction="ltr" writing-mode="lr-tb" unicode-bidi="normal" text-decoration="none" transform="matrix(1 0 0 1 248.955 960)">c</text><text fill="#000000" fill-opacity="1" font-family="Times New Roman,Times New Roman_MSFontService,sans-serif" font-style="normal" font-variant="normal" font-weight="400" font-stretch="normal" font-size="92" text-anchor="start" direction="ltr" writing-mode="lr-tb" unicode-bidi="normal" text-decoration="none" transform="matrix(1 0 0 1 1576.25 960)">d</text><text fill="#000000" fill-opacity="1" font-family="Times New Roman,Times New Roman_MSFontService,sans-serif" font-style="normal" font-variant="normal" font-weight="400" font-stretch="normal" font-size="92" text-anchor="start" direction="ltr" writing-mode="lr-tb" unicode-bidi="normal" text-decoration="none" transform="matrix(1 0 0 1 1575.24 1521)">f</text><text fill="#000000" fill-opacity="1" font-family="Times New Roman,Times New Roman_MSFontService,sans-serif" font-style="normal" font-variant="normal" font-weight="400" font-stretch="normal" font-size="92" text-anchor="start" direction="ltr" writing-mode="lr-tb" unicode-bidi="normal" text-decoration="none" transform="matrix(1 0 0 1 248.948 1522)">e</text><text fill="#000000" fill-opacity="1" font-family="Times New Roman,Times New Roman_MSFontService,sans-serif" font-style="normal" font-variant="normal" font-weight="400" font-stretch="normal" font-size="92" text-anchor="start" direction="ltr" writing-mode="lr-tb" unicode-bidi="normal" text-decoration="none" transform="matrix(1 0 0 1 917.414 2041)">g</text><rect x="789" y="2247.16" width="953.846" height="31.845" fill="#C2C2C2" fill-opacity="1"/><path d="M1742.85 2247.16 2119 1871 2119 1902.84 1742.85 2279Z" fill="#9C9C9C" fill-rule="evenodd" fill-opacity="1"/><path d="M789 2247.16 1165.15 1871 2119 1871 1742.85 2247.16Z" fill="#CECECE" fill-rule="evenodd" fill-opacity="1"/><path d="M1114.5 2071.5C1099.11 2001.73 1076.02 1928.6 1089.9 1858.5" stroke="#FCB801" stroke-width="19.4792" stroke-linecap="butt" stroke-linejoin="round" stroke-miterlimit="10" stroke-opacity="1" fill="none" fill-rule="evenodd"/><path d="M1203.5 2025.5C1175.72 1966.86 1207.13 1891.71 1187.5 1829.5" stroke="#FCB801" stroke-width="19.4792" stroke-linecap="butt" stroke-linejoin="round" stroke-miterlimit="10" stroke-opacity="1" fill="none" fill-rule="evenodd"/><path d="M1439.92 1972.5C1439.92 1949.83 1431.06 1927.41 1432.99 1904.82 1437.6 1850.81 1464.69 1796.64 1453.78 1743.5" stroke="#FCB801" stroke-width="19.4792" stroke-linecap="butt" stroke-linejoin="round" stroke-miterlimit="10" stroke-opacity="1" fill="none" fill-rule="evenodd"/><path d="M1510.35 2101.5C1485.39 2042.89 1521.5 1974.28 1521.5 1910.5" stroke="#FCB801" stroke-width="19.4792" stroke-linecap="butt" stroke-linejoin="round" stroke-miterlimit="10" stroke-opacity="1" fill="none" fill-rule="evenodd"/><path d="M1584.5 2004.5C1584.5 1934.53 1649.38 1879.88 1671.5 1813.5" stroke="#FCB801" stroke-width="19.4792" stroke-linecap="butt" stroke-linejoin="round" stroke-miterlimit="10" stroke-opacity="1" fill="none" fill-rule="evenodd"/><path d="M1737.98 2051.5C1734.02 2016.03 1738.09 1977.26 1754.88 1945.75 1773.97 1909.94 1815.84 1884.52 1822.5 1844.5" stroke="#FCB801" stroke-width="19.4792" stroke-linecap="butt" stroke-linejoin="round" stroke-miterlimit="10" stroke-opacity="1" fill="none" fill-rule="evenodd"/><rect x="1010" y="2156" width="8.99994" height="31" fill="#000000" fill-opacity="1"/><rect x="1005" y="2106" width="18.9999" height="64" fill="#3B67BE" fill-opacity="1"/><rect x="1110" y="2117" width="7.99988" height="32" fill="#000000" fill-opacity="1"/><rect x="1104" y="2068" width="19.9999" height="63" fill="#BB0000" fill-opacity="1"/><rect x="1198" y="2075" width="8.99988" height="31.0002" fill="#000000" fill-opacity="1"/><rect x="1193" y="2026" width="18.9999" height="62.9999" fill="#BB0000" fill-opacity="1"/><rect x="1275" y="2124" width="8.99988" height="32" fill="#000000" fill-opacity="1"/><rect x="1270" y="2075" width="18.9999" height="63.0002" fill="#3B67BE" fill-opacity="1"/><rect x="1360" y="2142" width="8.00024" height="31" fill="#000000" fill-opacity="1"/><rect x="1354" y="2093" width="19.9999" height="63" fill="#3B67BE" fill-opacity="1"/><rect x="1435" y="2019" width="8.99988" height="32.0004" fill="#000000" fill-opacity="1"/><rect x="1430" y="1970" width="18.9999" height="62.9999" fill="#BB0000" fill-opacity="1"/><rect x="1504" y="2147" width="8.00024" height="32" fill="#000000" fill-opacity="1"/><rect x="1498" y="2098" width="19.9999" height="63.0002" fill="#BB0000" fill-opacity="1"/><rect x="1580" y="2054" width="8.00024" height="32" fill="#000000" fill-opacity="1"/><rect x="1574" y="2005" width="19.9999" height="62.9999" fill="#BB0000" fill-opacity="1"/><rect x="1659" y="2156" width="8.99988" height="31" fill="#000000" fill-opacity="1"/><rect x="1654" y="2106" width="18.9999" height="64" fill="#3B67BE" fill-opacity="1"/><rect x="1732" y="2100" width="8.99988" height="32" fill="#000000" fill-opacity="1"/><rect x="1727" y="2051" width="18.9999" height="63" fill="#BB0000" fill-opacity="1"/><path d="M1097.42 1797.38 1116.08 1802.84 1098.37 1863.34 1079.7 1857.87Z" fill="#3B67BE" fill-rule="nonzero" fill-opacity="1"/><path d="M1170.19 1772 1189.57 1769.72 1196.9 1832.28 1177.52 1834.56Z" fill="#3B67BE" fill-rule="nonzero" fill-opacity="1"/><path d="M1436.87 1684.87 1456.25 1682.6 1463.58 1745.16 1444.2 1747.43Z" fill="#3B67BE" fill-rule="nonzero" fill-opacity="1"/><path d="M1517.86 1850.18 1537.17 1852.24 1530.47 1915.06 1511.16 1913Z" fill="#3B67BE" fill-rule="nonzero" fill-opacity="1"/><path d="M1684.28 1754.63 1702.38 1761.87 1678.96 1820.42 1660.86 1813.18Z" fill="#3B67BE" fill-rule="nonzero" fill-opacity="1"/><path d="M1823.13 1787.43 1842.29 1790.98 1830.81 1852.98 1811.64 1849.43Z" fill="#3B67BE" fill-rule="nonzero" fill-opacity="1"/></g></svg>